<svg width="30" height="26" viewBox="0 0 30 26" fill="none" xmlns="http://www.w3.org/2000/svg">
<path d="M12.7861 24.8396L12.7117 24.9621C12.6706 25.0109 12.6194 25.0501 12.5616 25.077C12.5038 25.1039 12.4408 25.1178 12.377 25.1178C12.3133 25.1178 12.2503 25.1039 12.1925 25.077C12.1346 25.0501 12.0834 25.0109 12.0423 24.9621L11.968 24.8396L11.817 24.4568L12.377 24.6777L12.9348 24.459L12.7861 24.8396ZM11.968 0.654596C11.9995 0.571588 12.0554 0.500124 12.1285 0.449694C12.2016 0.399264 12.2883 0.372255 12.377 0.372255C12.4658 0.372255 12.5525 0.399264 12.6255 0.449694C12.6986 0.500124 12.7546 0.571588 12.7861 0.654596L15.0436 6.38147C15.3736 7.21812 15.872 7.978 16.508 8.61395C17.1439 9.2499 17.9038 9.74835 18.7405 10.0783L24.0867 12.1849L24.3077 12.7449L24.0889 13.3027L18.7405 15.4115L18.4277 15.5427C16.8803 16.2479 15.667 17.5262 15.0436 19.1083L12.9348 24.4546L12.377 24.6755L11.817 24.4568L9.71047 19.1083C9.08702 17.5262 7.87379 16.2479 6.3264 15.5427L6.01359 15.4115L0.282342 13.154C0.199334 13.1225 0.127869 13.0665 0.0774389 12.9934C0.0270087 12.9204 0 12.8337 0 12.7449C0 12.6561 0.0270087 12.5695 0.0774389 12.4964C0.127869 12.4233 0.199334 12.3673 0.282342 12.3358L0.665154 12.1849L6.01359 10.0783C7.59569 9.4549 8.87401 8.24167 9.57922 6.69428L9.71047 6.38147L11.968 0.654596ZM11.7448 7.18647C10.9128 9.29497 9.29493 10.9983 7.23203 11.9377L6.8164 12.1127L5.21297 12.7471L6.8164 13.3793C7.93173 13.8193 8.94472 14.4838 9.79252 15.3316C10.6403 16.1794 11.3048 17.1924 11.7448 18.3077L12.377 19.909L13.0114 18.3077C13.4512 17.1926 14.1153 16.1797 14.9628 15.332C15.8102 14.4842 16.8227 13.8195 17.9377 13.3793L19.5389 12.7471L17.9377 12.1127C15.83 11.2817 14.1267 9.66554 13.1864 7.60428L13.0114 7.18866L12.377 5.58303L11.7448 7.18647ZM24.4695 12.338C24.5525 12.3695 24.624 12.4255 24.6744 12.4986C24.7249 12.5716 24.7519 12.6583 24.7519 12.7471C24.7519 12.8359 24.7249 12.9226 24.6744 12.9956C24.624 13.0687 24.5525 13.1247 24.4695 13.1562L24.0867 13.3049L24.3077 12.7449L24.0889 12.1871L24.4695 12.338ZM24.1086 1.51647C24.5986 2.39366 25.3752 3.08272 26.3202 3.45678L27.1733 3.79366C27.2141 3.80978 27.2491 3.83781 27.2738 3.87409C27.2984 3.91036 27.3116 3.95322 27.3116 3.9971C27.3116 4.04097 27.2984 4.08383 27.2738 4.12011C27.2491 4.15639 27.2141 4.18441 27.1733 4.20053L26.983 4.27491L26.3202 4.53741L25.9089 4.72553C24.9719 5.2119 24.2424 6.02069 23.8548 7.00272L23.5923 7.66553L23.518 7.85585L23.483 7.9171C23.4624 7.94187 23.4367 7.96181 23.4076 7.97549C23.3785 7.98918 23.3467 7.99627 23.3145 7.99627C23.2824 7.99627 23.2506 7.98918 23.2215 7.97549C23.1924 7.96181 23.1666 7.94187 23.1461 7.9171L23.1111 7.85585L23.0345 7.66553L22.772 7.00272C22.3856 6.02142 21.6577 5.21273 20.7223 4.72553L20.3089 4.53741L19.4558 4.20053C19.415 4.18441 19.38 4.15639 19.3553 4.12011C19.3306 4.08383 19.3174 4.04097 19.3174 3.9971C19.3174 3.95322 19.3306 3.91036 19.3553 3.87409C19.38 3.83781 19.415 3.80978 19.4558 3.79366L19.6439 3.7171L20.3089 3.4546C21.2539 3.08272 22.0283 2.39366 22.5183 1.51647L23.3145 1.20366L24.1086 1.51647ZM23.1111 0.138346C23.1272 0.0975448 23.1552 0.0625345 23.1915 0.0378633C23.2278 0.0131921 23.2707 0 23.3145 0C23.3584 0 23.4013 0.0131921 23.4375 0.0378633C23.4738 0.0625345 23.5018 0.0975448 23.518 0.138346L23.8548 0.991471C23.9278 1.1723 24.0123 1.3473 24.1086 1.51647L23.3145 1.20366L22.5183 1.51647L22.5861 1.40272L22.7742 0.991471L23.1111 0.138346ZM24.2464 15.3437C24.2596 15.3116 24.282 15.2841 24.3108 15.2648C24.3397 15.2455 24.3736 15.2352 24.4083 15.2352C24.443 15.2352 24.4769 15.2455 24.5057 15.2648C24.5345 15.2841 24.557 15.3116 24.5702 15.3437C25.0068 16.4524 25.667 17.4594 26.5096 18.302C27.3522 19.1446 28.3592 19.8048 29.468 20.2415C29.5001 20.2547 29.5275 20.2771 29.5468 20.3059C29.5662 20.3347 29.5765 20.3686 29.5765 20.4033C29.5765 20.438 29.5662 20.472 29.5468 20.5008C29.5275 20.5296 29.5001 20.552 29.468 20.5652L29.3148 20.6308C28.2406 21.0774 27.2671 21.7353 26.4521 22.5654C25.637 23.3955 24.997 24.3809 24.5702 25.463L24.5439 25.5112C24.5275 25.5309 24.5069 25.5468 24.4837 25.5577C24.4604 25.5686 24.4351 25.5742 24.4094 25.5742C24.3837 25.5742 24.3583 25.5686 24.3351 25.5577C24.3118 25.5468 24.2913 25.5309 24.2748 25.5112L24.2464 25.4608C23.4209 23.3657 21.8138 21.6731 19.7642 20.7402L19.3486 20.5652C19.3165 20.552 19.289 20.5296 19.2697 20.5008C19.2504 20.472 19.2401 20.438 19.2401 20.4033C19.2401 20.3686 19.2504 20.3347 19.2697 20.3059C19.289 20.2771 19.3165 20.2547 19.3486 20.2415C20.4573 19.8048 21.4643 19.1446 22.3069 18.302C23.1495 17.4594 23.8097 16.4524 24.2464 15.3437ZM24.4083 19.2462C24.051 19.6618 23.6645 20.0475 23.2489 20.4033C23.6645 20.7606 24.051 21.1456 24.4083 21.5583C24.7656 21.1442 25.1506 20.7592 25.5633 20.4033C25.1499 20.0463 24.7638 19.6609 24.4083 19.2462Z" fill="#1B1A47"/>
</svg>
