<svg width="23" height="25" viewBox="0 0 23 25" fill="none" xmlns="http://www.w3.org/2000/svg">
<path d="M11.5002 1C14.8123 1.0002 17.3995 3.52451 17.3997 6.52148C17.3997 9.51857 14.8124 12.0437 11.5002 12.0439C8.1879 12.0439 5.59985 9.51869 5.59985 6.52148C5.60001 3.52439 8.18799 1 11.5002 1Z" stroke="#1B1A47" stroke-width="2"/>
<path d="M11.5 15.1304C14.4582 15.1304 16.7 15.3966 18.1904 15.6587C18.9357 15.7897 19.4939 15.9198 19.8594 16.0151H19.8604L21.7373 23.9995H1.2627L3.13867 16.0151H3.14062C3.50609 15.9198 4.06428 15.7897 4.80957 15.6587C6.29995 15.3966 8.54184 15.1304 11.5 15.1304Z" stroke="#1B1A47" stroke-width="2"/>
</svg>
